<?xml version="1.0" standalone="no"?>
<!DOCTYPE svg PUBLIC "-//W3C//DTD SVG 20010904//EN"
 "http://www.w3.org/TR/2001/REC-SVG-20010904/DTD/svg10.dtd">
<svg version="1.0" xmlns="http://www.w3.org/2000/svg"
 width="250.000000pt" height="250.000000pt" viewBox="0 0 250.000000 250.000000"
 preserveAspectRatio="xMidYMid meet">
<metadata>
Created by potrace 1.14, written by Peter Selinger 2001-2017
</metadata>
<g transform="translate(0.000000,250.000000) scale(0.100000,-0.100000)"
fill="#000000" stroke="none">
<path d="M290 1986 c-164 -70 -220 -98 -220 -108 0 -5 20 -50 44 -101 107
-225 151 -319 200 -422 29 -60 68 -141 86 -180 89 -188 162 -340 208 -435 28
-58 68 -144 90 -192 l41 -88 65 0 66 0 -11 27 c-5 15 -19 43 -29 63 -10 19
-39 78 -63 130 -25 52 -69 147 -100 210 -202 424 -271 569 -285 603 -7 15 -15
26 -20 24 -4 -3 -8 5 -8 16 -1 12 -31 83 -67 157 l-65 135 56 27 c31 15 73 34
93 42 35 15 228 83 259 91 8 2 56 15 105 29 l90 25 -205 0 -205 1 -125 -54z"/>
<path d="M1865 2000 c127 -63 184 -127 208 -235 15 -67 14 -99 -2 -202 -31
-201 -144 -373 -316 -480 -42 -27 -158 -85 -175 -88 -28 -6 -89 -29 -86 -34 2
-3 -6 -7 -17 -7 -12 -1 -47 -8 -77 -17 -30 -8 -82 -21 -115 -28 -33 -7 -64
-14 -70 -15 -5 -1 -26 -5 -45 -8 -19 -4 -42 -9 -50 -11 -8 -2 -30 -7 -49 -10
-117 -20 -140 -85 -92 -260 12 -44 24 -91 27 -105 8 -37 16 -41 76 -38 l55 3
-27 105 c-16 58 -33 119 -38 137 -10 30 -9 32 21 42 18 5 82 19 142 31 61 12
159 35 218 51 106 30 277 94 287 107 3 4 18 13 34 20 44 20 126 77 171 119
146 140 238 341 252 550 10 159 -24 268 -114 364 l-46 49 -126 0 -126 -1 80
-39z"/>
<path d="M1198 1925 c-2 -2 -30 -5 -63 -8 -33 -4 -71 -9 -85 -12 -14 -3 -50
-10 -80 -15 -103 -19 -223 -58 -244 -79 -12 -12 -26 -36 -32 -53 -12 -35 -5
-67 84 -398 11 -41 32 -120 47 -175 15 -55 33 -110 41 -122 17 -27 81 -46 126
-37 18 4 40 7 48 9 8 1 40 7 70 13 30 7 64 14 75 16 160 32 365 103 365 127 0
5 6 9 14 9 26 0 131 123 120 141 -3 5 -1 9 4 9 6 0 15 14 21 30 5 17 8 30 6
30 -2 0 2 17 9 38 25 73 0 260 -39 292 -8 7 -15 19 -15 26 0 17 -99 96 -111
88 -5 -3 -9 0 -9 6 0 25 -144 60 -262 64 -49 2 -89 2 -90 1z m201 -130 c85
-15 160 -65 192 -127 26 -51 31 -146 12 -218 -8 -30 -15 -60 -16 -67 0 -7 -4
-10 -9 -7 -4 3 -8 1 -8 -4 0 -18 -74 -81 -120 -104 -25 -12 -76 -32 -113 -43
-37 -12 -64 -24 -60 -28 4 -5 0 -5 -9 -2 -9 4 -36 1 -59 -5 -24 -7 -57 -14
-74 -17 -16 -2 -37 -6 -45 -9 -8 -3 -33 -8 -55 -11 -22 -3 -45 -9 -50 -14 -6
-4 -15 -5 -21 -1 -10 6 -14 18 -29 92 -3 14 -9 34 -12 45 -4 11 -8 25 -9 30
-7 29 -94 355 -103 383 -12 40 -7 43 109 70 188 44 366 58 479 37z"/>
<path d="M1842 851 c-5 -9 -7 -60 -7 -114 2 -106 9 -122 57 -131 20 -3 27 0
32 17 3 12 -1 25 -11 32 -12 9 -15 32 -16 112 0 99 0 101 -24 101 -13 0 -27
-8 -31 -17z"/>
<path d="M1962 858 c-28 -28 2 -67 37 -48 21 11 30 50 12 50 -5 0 -15 2 -23 5
-7 3 -19 0 -26 -7z"/>
<path d="M2104 860 c-34 -13 -38 -27 -39 -142 l-1 -108 32 0 31 0 0 63 -1 62
37 3 c32 3 37 7 37 28 0 13 -3 23 -7 23 -5 -1 -23 -1 -42 0 -29 1 -32 3 -21
16 7 8 25 15 40 15 27 0 46 22 34 41 -7 11 -72 11 -100 -1z"/>
<path d="M1959 780 c-1 -3 -2 -42 -3 -87 l-2 -83 33 0 33 0 -2 90 -1 90 -29
-2 c-15 -1 -29 -5 -29 -8z"/>
<path d="M2274 780 c-27 -11 -53 -66 -48 -99 3 -14 16 -37 30 -51 21 -21 34
-25 84 -25 66 1 75 5 66 33 -6 17 -13 19 -44 15 -24 -3 -44 1 -57 11 -19 14
-15 15 48 16 l67 0 0 30 c0 45 -39 80 -87 79 -21 0 -47 -4 -59 -9z m86 -51 c0
-5 -17 -9 -37 -9 -34 1 -36 2 -20 14 18 14 57 11 57 -5z"/>
</g>
</svg>
