<?xml version="1.0" standalone="no"?>
<!DOCTYPE svg PUBLIC "-//W3C//DTD SVG 20010904//EN"
 "http://www.w3.org/TR/2001/REC-SVG-20010904/DTD/svg10.dtd">
<svg version="1.0" xmlns="http://www.w3.org/2000/svg"
 width="200.000000pt" height="200.000000pt" viewBox="0 0 200.000000 200.000000"
 preserveAspectRatio="xMidYMid meet">
<metadata>
Created by potrace 1.14, written by Peter Selinger 2001-2017
</metadata>
<g transform="translate(0.000000,200.000000) scale(0.100000,-0.100000)"
fill="#000000" stroke="none">
<path d="M250 1750 l0 -221 147 3 147 3 -1 28 c-1 15 -1 32 -2 37 -1 6 -40 10
-96 10 l-95 0 0 180 0 180 -50 0 -50 0 0 -220z"/>
<path d="M959 1716 c-2 -2 -35 -6 -74 -10 -109 -9 -159 -17 -170 -27 -5 -6 -9
-281 -10 -714 l0 -705 163 0 162 0 0 240 0 240 108 1 c59 0 114 2 122 3 8 2
40 6 70 9 197 22 363 116 424 240 50 103 66 239 40 360 -37 179 -146 280 -364
337 -70 18 -118 23 -276 26 -105 2 -193 2 -195 0z m331 -288 c79 -14 138 -51
161 -101 40 -89 14 -209 -55 -254 -46 -30 -150 -50 -268 -52 l-98 -2 0 205 c0
154 3 205 13 209 24 8 193 5 247 -5z"/>
<path d="M340 1260 l0 -220 49 0 50 0 0 220 0 220 -50 0 -49 0 0 -220z"/>
<path d="M240 750 l0 -220 50 0 50 0 0 90 0 90 85 0 85 0 0 40 0 40 -85 0 -85
0 0 50 0 50 95 0 95 0 0 40 0 40 -145 0 -145 0 0 -220z"/>
<path d="M240 260 l0 -220 155 0 155 0 0 40 0 40 -105 0 -105 0 0 55 0 55 85
0 85 0 0 40 0 40 -85 0 -85 0 0 45 0 44 97 3 97 3 1 35 0 35 -148 3 -147 3 0
-221z"/>
</g>
</svg>
