<!DOCTYPE svg PUBLIC "-//W3C//DTD SVG 1.1//EN" "http://www.w3.org/Graphics/SVG/1.1/DTD/svg11.dtd">
<!-- Uploaded to: SVG Repo, www.svgrepo.com, Transformed by: SVG Repo Mixer Tools -->
<svg width="800px" height="800px" viewBox="0 0 24 24" fill="none" xmlns="http://www.w3.org/2000/svg">
<g id="SVGRepo_bgCarrier" stroke-width="0"/>
<g id="SVGRepo_tracerCarrier" stroke-linecap="round" stroke-linejoin="round"/>
<g id="SVGRepo_iconCarrier"> <path d="M12.5 22C10.754 21.9973 9.08035 21.3019 7.84664 20.0663C6.61294 18.8307 5.92001 17.156 5.92001 15.41V8.90999C5.92001 8.04589 6.09021 7.19025 6.42089 6.39193C6.75156 5.59361 7.23624 4.86823 7.84725 4.25722C8.45826 3.64621 9.18363 3.16154 9.98196 2.83086C10.7803 2.50018 11.6359 2.32999 12.5 2.32999C13.3641 2.32999 14.2197 2.50018 15.0181 2.83086C15.8164 3.16154 16.5418 3.64621 17.1528 4.25722C17.7638 4.86823 18.2485 5.59361 18.5791 6.39193C18.9098 7.19025 19.08 8.04589 19.08 8.90999V15.41C19.08 17.156 18.3871 18.8307 17.1534 20.0663C15.9197 21.3019 14.2461 21.9973 12.5 22ZM12.5 3.82999C11.1535 3.83263 9.86294 4.36869 8.91083 5.3208C7.95872 6.27292 7.42266 7.5635 7.42001 8.90999V15.41C7.42001 16.0771 7.55141 16.7377 7.80671 17.354C8.062 17.9704 8.43619 18.5304 8.90791 19.0021C9.37963 19.4738 9.93965 19.848 10.556 20.1033C11.1723 20.3586 11.8329 20.49 12.5 20.49C13.1671 20.49 13.8277 20.3586 14.444 20.1033C15.0604 19.848 15.6204 19.4738 16.0921 19.0021C16.5638 18.5304 16.938 17.9704 17.1933 17.354C17.4486 16.7377 17.58 16.0771 17.58 15.41V8.90999C17.5774 7.5635 17.0413 6.27292 16.0892 5.3208C15.1371 4.36869 13.8465 3.83263 12.5 3.82999Z" fill="#ffffff"/> <path d="M12.5 11.72C12.3011 11.72 12.1103 11.641 11.9697 11.5003C11.829 11.3597 11.75 11.1689 11.75 10.97V8.22C11.75 8.12151 11.7694 8.02398 11.8071 7.93299C11.8448 7.84199 11.9 7.75932 11.9697 7.68967C12.0393 7.62003 12.122 7.56478 12.213 7.52709C12.304 7.4894 12.4015 7.47 12.5 7.47C12.5985 7.47 12.696 7.4894 12.787 7.52709C12.878 7.56478 12.9607 7.62003 13.0303 7.68967C13.1 7.75932 13.1552 7.84199 13.1929 7.93299C13.2306 8.02398 13.25 8.12151 13.25 8.22V11C13.2422 11.1937 13.1598 11.3768 13.02 11.511C12.8802 11.6453 12.6938 11.7202 12.5 11.72Z" fill="#ffffff"/> </g>
</svg>