<!DOCTYPE svg PUBLIC "-//W3C//DTD SVG 1.1//EN" "http://www.w3.org/Graphics/SVG/1.1/DTD/svg11.dtd">
<!-- Uploaded to: SVG Repo, www.svgrepo.com, Transformed by: SVG Repo Mixer Tools -->
<svg width="800px" height="800px" viewBox="0 0 24 24" fill="none" xmlns="http://www.w3.org/2000/svg">
<g id="SVGRepo_bgCarrier" stroke-width="0"/>
<g id="SVGRepo_tracerCarrier" stroke-linecap="round" stroke-linejoin="round"/>
<g id="SVGRepo_iconCarrier"> <path d="M2 6L3.06051 7.11942C3.58133 7.66918 3.56352 8.53546 3.02055 9.06335L3 9.08333C2.45233 9.61579 2.45233 10.4953 3 11.0278V11.0278C3.54767 11.5602 3.54767 12.4398 3 12.9722V12.9722C2.45233 13.5047 2.45233 14.3842 3 14.9167L3.02055 14.9366C3.56351 15.4645 3.58132 16.3308 3.0605 16.8806L2 18M22 6L20.9395 7.11942C20.4187 7.66918 20.4365 8.53546 20.9794 9.06335L21 9.08333C21.5477 9.61579 21.5477 10.4953 21 11.0278V11.0278C20.4523 11.5602 20.4523 12.4398 21 12.9722V12.9722C21.5477 13.5047 21.5477 14.3842 21 14.9167L20.9795 14.9366C20.4365 15.4645 20.4187 16.3308 20.9395 16.8806L22 18M7 5L7 19C7 20.1046 7.89543 21 9 21H15C16.1046 21 17 20.1046 17 19V5C17 3.89543 16.1046 3 15 3L9 3C7.89543 3 7 3.89543 7 5Z" stroke="#969ea7" stroke-width="2" stroke-linecap="round" stroke-linejoin="round"/> </g>
</svg>